<?xml version="1.0" encoding="UTF-8" standalone="no"?><!-- Generator: Gravit.io --><svg xmlns="http://www.w3.org/2000/svg" xmlns:xlink="http://www.w3.org/1999/xlink" style="isolation:isolate" viewBox="604.062 285 49.788 132.4" width="49.788pt" height="132.4pt"><defs><clipPath id="_clipPath_Qque4efOUnx3QLLlLOvmnc7FS6ExC99B"><rect x="604.062" y="285" width="49.788" height="132.4"/></clipPath></defs><g clip-path="url(#_clipPath_Qque4efOUnx3QLLlLOvmnc7FS6ExC99B)"><circle vector-effect="non-scaling-stroke" cx="626.1644265963549" cy="307.10224007031167" r="22.102240070311723" fill="rgb(0,0,0)"/><circle vector-effect="non-scaling-stroke" cx="626.1644265963549" cy="362.10224007031167" r="22.102240070311723" fill="rgb(224,23,31)"/><path d=" M 638.098 377.244 C 641.948 377.802 637.782 378.242 632.498 382.612 C 632.133 382.914 631.036 383.257 630.67 383.597 C 630.244 383.993 630.169 384.902 629.756 385.355 C 629.556 386.387 632.131 389.051 632.173 389.17 C 633.321 390.649 634.217 391.985 634.883 393.169 C 639.589 401.53 632.834 402.309 622.486 392.264 C 618.354 388.254 613.65 382.518 608.873 374.85 Q 625.904 375.474 638.098 377.244 Z " fill="rgb(224,23,31)" vector-effect="non-scaling-stroke" stroke-width="1" stroke="rgb(224,23,31)" stroke-linejoin="miter" stroke-linecap="square" stroke-miterlimit="3"/><path d=" M 633.829 382.275 Q 628.532 385.051 631.579 388.894" fill="none" vector-effect="non-scaling-stroke" stroke-width="1" stroke="rgb(224,23,31)" stroke-linejoin="miter" stroke-linecap="square" stroke-miterlimit="3"/></g></svg>