<?xml version="1.0" encoding="UTF-8" standalone="no"?><!-- Generator: Gravit.io --><svg xmlns="http://www.w3.org/2000/svg" xmlns:xlink="http://www.w3.org/1999/xlink" style="isolation:isolate" viewBox="600 285 104.783 132.4" width="104.783pt" height="132.4pt"><defs><clipPath id="_clipPath_gwlyctra9qBz80tXFEdBHUh3tllFSSWC"><rect x="600" y="285" width="104.783" height="132.4"/></clipPath></defs><g clip-path="url(#_clipPath_gwlyctra9qBz80tXFEdBHUh3tllFSSWC)"><circle vector-effect="non-scaling-stroke" cx="622.1022400703117" cy="307.10224007031167" r="22.102240070311723" fill="rgb(0,0,0)"/><circle vector-effect="non-scaling-stroke" cx="622.1022400703117" cy="362.10224007031167" r="22.102240070311723" fill="rgb(0,0,0)"/><g clip-path="url(#_clipPath_Bn5oahCKiz5rwHppkKDFzoXtRrHKTeus)"><text transform="matrix(1,0,0,1,650.783,383.077)" style="font-family:'Futura Md BT';font-weight:500;font-size:59px;font-style:normal;fill:#000000;stroke:none;">O</text></g><defs><clipPath id="_clipPath_Bn5oahCKiz5rwHppkKDFzoXtRrHKTeus"><rect x="0" y="0" width="54" height="70.725" transform="matrix(1,0,0,1,650.783,326.267)"/></clipPath></defs><path d=" M 610.169 377.244 C 606.319 377.802 610.484 378.242 615.769 382.612 C 616.134 382.914 617.231 383.257 617.597 383.597 C 618.023 383.993 618.098 384.902 618.511 385.355 C 618.711 386.387 616.135 389.051 616.094 389.17 C 614.945 390.649 614.049 391.985 613.383 393.169 C 608.678 401.53 615.433 402.309 625.781 392.264 C 629.912 388.254 634.617 382.518 639.394 374.85 Q 622.362 375.474 610.169 377.244 Z " fill="rgb(0,0,0)" vector-effect="non-scaling-stroke" stroke-width="1" stroke="rgb(0,0,0)" stroke-linejoin="miter" stroke-linecap="square" stroke-miterlimit="3"/><path d=" M 614.438 382.275 Q 619.734 385.051 616.688 388.894" fill="none" vector-effect="non-scaling-stroke" stroke-width="1" stroke="rgb(0,0,0)" stroke-linejoin="miter" stroke-linecap="square" stroke-miterlimit="3"/></g></svg>