<?xml version="1.0" encoding="UTF-8" standalone="no"?><!-- Generator: Gravit.io --><svg xmlns="http://www.w3.org/2000/svg" xmlns:xlink="http://www.w3.org/1999/xlink" style="isolation:isolate" viewBox="563.293 320.207 116.119 97.193" width="116.119pt" height="97.193pt"><defs><clipPath id="_clipPath_u2iDUTuJ25oRkyv5T6vbwQmdfLU4EJer"><rect x="563.293" y="320.207" width="116.119" height="97.193"/></clipPath></defs><g clip-path="url(#_clipPath_u2iDUTuJ25oRkyv5T6vbwQmdfLU4EJer)"><path d=" M 657.309 364.412 C 669.508 364.412 679.412 354.508 679.412 342.309 C 679.412 330.111 669.508 320.207 657.309 320.207 C 645.111 320.207 635.207 330.111 635.207 342.309 C 635.207 354.508 645.111 364.412 657.309 364.412 Z " fill="rgb(0,0,0)"/><path d=" M 602.309 364.412 C 614.508 364.412 624.412 354.508 624.412 342.309 C 624.412 330.111 614.508 320.207 602.309 320.207 C 590.111 320.207 580.207 330.111 580.207 342.309 C 580.207 354.508 590.111 364.412 602.309 364.412 Z " fill="rgb(0,0,0)"/><path d=" M 587.168 354.243 C 586.609 358.093 586.169 353.927 581.799 348.643 C 581.497 348.278 581.155 347.181 580.815 346.815 C 580.419 346.389 579.509 346.314 579.057 345.901 C 578.025 345.701 575.361 348.276 575.242 348.318 C 573.763 349.466 572.427 350.362 571.243 351.028 C 562.882 355.734 562.103 348.979 572.147 338.631 C 576.158 334.499 581.894 329.795 589.562 325.018 Q 588.937 342.049 587.168 354.243 Z " fill="rgb(0,0,0)" vector-effect="non-scaling-stroke" stroke-width="1" stroke="rgb(0,0,0)" stroke-linejoin="miter" stroke-linecap="square" stroke-miterlimit="3"/><path d=" M 582.137 349.974 Q 579.361 344.677 575.518 347.724" fill="none" vector-effect="non-scaling-stroke" stroke-width="1" stroke="rgb(0,0,0)" stroke-linejoin="miter" stroke-linecap="square" stroke-miterlimit="3"/></g></svg>