<?xml version="1.0" encoding="UTF-8" standalone="no"?><!-- Generator: Gravit.io --><svg xmlns="http://www.w3.org/2000/svg" xmlns:xlink="http://www.w3.org/1999/xlink" style="isolation:isolate" viewBox="0 0 560 315" width="560pt" height="315pt"><defs><clipPath id="_clipPath_lxcQxKNDYqMduXkgdlrtVwhH2GgxI5Ol"><rect width="560" height="315"/></clipPath></defs><g clip-path="url(#_clipPath_lxcQxKNDYqMduXkgdlrtVwhH2GgxI5Ol)"><path d=" M 277.45 315.36 C 241.078 315.36 211.548 295.423 211.548 270.867 C 211.548 246.31 241.078 226.373 277.45 226.373 C 313.822 226.373 343.352 246.31 343.352 270.867 C 343.352 295.423 313.822 315.36 277.45 315.36 Z " fill="rgb(232,232,232)"/><path d=" M 442.884 315.36 C 406.137 315.36 376.303 295.218 376.303 270.408 C 376.303 245.598 406.137 225.455 442.884 225.455 C 479.632 225.455 509.466 245.598 509.466 270.408 C 509.466 295.218 479.632 315.36 442.884 315.36 Z " fill="rgb(232,232,232)"/><path d=" M 488.497 294.678 C 490.18 302.508 491.506 294.036 504.67 283.289 C 505.579 282.547 506.611 280.315 507.636 279.571 C 508.829 278.705 511.569 278.552 512.931 277.712 C 516.04 277.306 524.065 282.543 524.424 282.628 C 528.879 284.963 532.904 286.786 536.47 288.141 C 561.659 297.71 564.005 283.973 533.746 262.926 C 521.664 254.523 504.385 244.955 481.286 235.239 Q 483.166 269.879 488.497 294.678 Z " fill="rgb(232,232,232)" vector-effect="non-scaling-stroke" stroke-width="1" stroke="rgb(232,232,232)" stroke-linejoin="miter" stroke-linecap="square" stroke-miterlimit="3"/><path d=" M 503.654 285.996 Q 512.015 275.223 523.592 281.42" fill="rgb(232,232,232)" vector-effect="non-scaling-stroke" stroke-width="1" stroke="rgb(232,232,232)" stroke-linejoin="miter" stroke-linecap="square" stroke-miterlimit="3"/><mask id="_mask_k7ibuepOkBwtZ1ShAsKqq3lWAjXePVQv"><path d=" M 442.029 204.033 C 405.572 204.033 375.973 184.049 375.973 159.435 C 375.973 134.821 405.572 114.837 442.029 114.837 C 478.487 114.837 508.085 134.821 508.085 159.435 C 508.085 184.049 478.487 204.033 442.029 204.033 Z " fill="white" stroke="none"/></mask><path d=" M 442.029 204.033 C 405.572 204.033 375.973 184.049 375.973 159.435 C 375.973 134.821 405.572 114.837 442.029 114.837 C 478.487 114.837 508.085 134.821 508.085 159.435 C 508.085 184.049 478.487 204.033 442.029 204.033 Z " fill="rgb(232,232,232)"/><path d=" M 442.029 204.033 C 405.572 204.033 375.973 184.049 375.973 159.435 C 375.973 134.821 405.572 114.837 442.029 114.837 C 478.487 114.837 508.085 134.821 508.085 159.435 C 508.085 184.049 478.487 204.033 442.029 204.033 Z " fill="rgb(232,232,232)" mask="url(#_mask_k7ibuepOkBwtZ1ShAsKqq3lWAjXePVQv)" vector-effect="non-scaling-stroke" stroke-width="12" stroke="rgb(232,232,232)" stroke-linejoin="miter" stroke-linecap="square" stroke-miterlimit="3"/><path d=" M 277.622 2.637 C 241.249 2.637 211.72 22.573 211.72 47.13 C 211.72 71.687 241.249 91.623 277.622 91.623 C 313.994 91.623 343.523 71.687 343.523 47.13 C 343.523 22.573 313.994 2.637 277.622 2.637 Z " fill="rgb(232,232,232)"/><path d=" M 443.056 2.637 C 406.309 2.637 376.474 22.779 376.474 47.589 C 376.474 72.399 406.309 92.542 443.056 92.542 C 479.804 92.542 509.638 72.399 509.638 47.589 C 509.638 22.779 479.804 2.637 443.056 2.637 Z " fill="rgb(232,232,232)"/><path d=" M 488.669 23.318 C 490.352 15.488 491.677 23.96 504.842 34.708 C 505.751 35.45 506.782 37.682 507.807 38.426 C 509.001 39.292 511.741 39.445 513.103 40.285 C 516.211 40.691 524.237 35.453 524.596 35.369 C 529.051 33.033 533.076 31.211 536.642 29.856 C 561.83 20.287 564.176 34.024 533.917 55.07 C 521.836 63.474 504.556 73.042 481.458 82.757 Q 483.338 48.118 488.669 23.318 Z " fill="rgb(232,232,232)" vector-effect="non-scaling-stroke" stroke-width="1" stroke="rgb(232,232,232)" stroke-linejoin="miter" stroke-linecap="square" stroke-miterlimit="3"/><path d=" M 503.825 32 Q 512.187 42.773 523.764 36.576" fill="rgb(232,232,232)" vector-effect="non-scaling-stroke" stroke-width="1" stroke="rgb(232,232,232)" stroke-linejoin="miter" stroke-linecap="square" stroke-miterlimit="3"/><path d=" M 112.507 315.682 C 149.254 315.682 179.088 295.539 179.088 270.729 C 179.088 245.919 149.254 225.777 112.507 225.777 C 75.759 225.777 45.925 245.919 45.925 270.729 C 45.925 295.539 75.759 315.682 112.507 315.682 Z " fill="rgb(232,232,232)"/><path d=" M 66.894 295 C 65.21 302.83 63.885 294.358 50.721 283.611 C 49.812 282.869 48.78 280.636 47.755 279.893 C 46.562 279.027 43.822 278.873 42.46 278.033 C 39.351 277.627 31.326 282.865 30.967 282.95 C 26.512 285.285 22.487 287.107 18.92 288.462 C -6.268 298.032 -8.614 284.294 21.645 263.248 C 33.727 254.845 51.006 245.276 74.105 235.561 Q 72.224 270.2 66.894 295 Z " fill="rgb(232,232,232)" vector-effect="non-scaling-stroke" stroke-width="1" stroke="rgb(232,232,232)" stroke-linejoin="miter" stroke-linecap="square" stroke-miterlimit="3"/><path d=" M 51.737 286.318 Q 43.376 275.545 31.799 281.742" fill="rgb(232,232,232)" vector-effect="non-scaling-stroke" stroke-width="1" stroke="rgb(232,232,232)" stroke-linejoin="miter" stroke-linecap="square" stroke-miterlimit="3"/><mask id="_mask_NZuu5aPB4t4pBqKFTwPjGpRoYGXe9zN0"><path d=" M 113.362 204.354 C 149.819 204.354 179.418 184.371 179.418 159.757 C 179.418 135.142 149.819 115.159 113.362 115.159 C 76.904 115.159 47.305 135.142 47.305 159.757 C 47.305 184.371 76.904 204.354 113.362 204.354 Z " fill="white" stroke="none"/></mask><path d=" M 113.362 204.354 C 149.819 204.354 179.418 184.371 179.418 159.757 C 179.418 135.142 149.819 115.159 113.362 115.159 C 76.904 115.159 47.305 135.142 47.305 159.757 C 47.305 184.371 76.904 204.354 113.362 204.354 Z " fill="rgb(232,232,232)"/><path d=" M 113.362 204.354 C 149.819 204.354 179.418 184.371 179.418 159.757 C 179.418 135.142 149.819 115.159 113.362 115.159 C 76.904 115.159 47.305 135.142 47.305 159.757 C 47.305 184.371 76.904 204.354 113.362 204.354 Z " fill="rgb(232,232,232)" mask="url(#_mask_NZuu5aPB4t4pBqKFTwPjGpRoYGXe9zN0)" vector-effect="non-scaling-stroke" stroke-width="12" stroke="rgb(232,232,232)" stroke-linejoin="miter" stroke-linecap="square" stroke-miterlimit="3"/><path d=" M 112.335 2.958 C 149.082 2.958 178.917 23.101 178.917 47.911 C 178.917 72.721 149.082 92.863 112.335 92.863 C 75.587 92.863 45.753 72.721 45.753 47.911 C 45.753 23.101 75.587 2.958 112.335 2.958 Z " fill="rgb(232,232,232)"/><path d=" M 66.722 23.64 C 65.039 15.81 63.713 24.282 50.549 35.03 C 49.64 35.772 48.608 38.004 47.583 38.748 C 46.39 39.614 43.65 39.767 42.288 40.607 C 39.179 41.013 31.154 35.775 30.795 35.69 C 26.34 33.355 22.315 31.533 18.749 30.178 C -6.44 20.608 -8.785 34.346 21.474 55.392 C 33.555 63.795 50.834 73.364 73.933 83.079 Q 72.053 48.44 66.722 23.64 Z " fill="rgb(232,232,232)" vector-effect="non-scaling-stroke" stroke-width="1" stroke="rgb(232,232,232)" stroke-linejoin="miter" stroke-linecap="square" stroke-miterlimit="3"/><ellipse vector-effect="non-scaling-stroke" cx="509.70000000000005" cy="39.339843750000036" rx="8.296875" ry="3.55078125" fill="rgb(232,232,232)" stroke-width="1" stroke="rgb(232,232,232)" stroke-linejoin="miter" stroke-linecap="butt" stroke-miterlimit="3"/><ellipse vector-effect="non-scaling-stroke" cx="510.48750000000007" cy="279.45234375000007" rx="8.296875" ry="3.55078125" fill="rgb(232,232,232)" stroke-width="1" stroke="rgb(232,232,232)" stroke-linejoin="miter" stroke-linecap="butt" stroke-miterlimit="3"/><ellipse vector-effect="non-scaling-stroke" cx="46.01250000000002" cy="280.4648437500001" rx="8.296875" ry="3.55078125" fill="rgb(232,232,232)" stroke-width="1" stroke="rgb(232,232,232)" stroke-linejoin="miter" stroke-linecap="butt" stroke-miterlimit="3"/><ellipse vector-effect="non-scaling-stroke" cx="44.70000000000002" cy="38.777343750000014" rx="8.296875" ry="3.55078125" fill="rgb(232,232,232)" stroke-width="1" stroke="rgb(232,232,232)" stroke-linejoin="miter" stroke-linecap="butt" stroke-miterlimit="3"/><path d=" M 51.565 32.322 Q 43.204 43.095 31.627 36.898" fill="rgb(232,232,232)" vector-effect="non-scaling-stroke" stroke-width="1" stroke="rgb(232,232,232)" stroke-linejoin="miter" stroke-linecap="square" stroke-miterlimit="3"/></g></svg>